<svg width="120" height="120" viewBox="0 0 120 120" fill="none" xmlns="http://www.w3.org/2000/svg">
  <!-- Speech bubble background -->
  <path d="M15 25C15 18.3726 20.3726 13 27 13H93C99.6274 13 105 18.3726 105 25V75C105 81.6274 99.6274 87 93 87H35L20 102V25Z" 
        fill="#ffffff" stroke="#5A6B7D" stroke-width="3" stroke-linejoin="round"/>
  
  <!-- Cat (left side) -->
  <g transform="translate(25, 30)">
    <!-- Cat body -->
    <path d="M5 35C5 31.6863 7.68629 29 11 29H19C22.3137 29 25 31.6863 25 35V42C25 45.3137 22.3137 48 19 48H11C7.68629 48 5 45.3137 5 42V35Z" 
          fill="#ffffff" stroke="#5A6B7D" stroke-width="2.5"/>
    
    <!-- Cat head -->
    <circle cx="15" cy="15" r="12" fill="#ffffff" stroke="#5A6B7D" stroke-width="2.5"/>
    
    <!-- Cat ears -->
    <path d="M7 8L10 2L13 8" fill="none" stroke="#5A6B7D" stroke-width="2.5" stroke-linecap="round" stroke-linejoin="round"/>
    <path d="M17 8L20 2L23 8" fill="none" stroke="#5A6B7D" stroke-width="2.5" stroke-linecap="round" stroke-linejoin="round"/>
    
    <!-- Cat face -->
    <circle cx="11" cy="13" r="1.5" fill="#5A6B7D"/>
    <circle cx="19" cy="13" r="1.5" fill="#5A6B7D"/>
    <path d="M15 16L15 18" stroke="#5A6B7D" stroke-width="1.5" stroke-linecap="round"/>
    <path d="M13 19C13.5 19.5 14.2 20 15 20C15.8 20 16.5 19.5 17 19" 
          fill="none" stroke="#5A6B7D" stroke-width="1.5" stroke-linecap="round"/>
    
    <!-- Cat whiskers -->
    <path d="M5 14L8 13" stroke="#5A6B7D" stroke-width="1.5" stroke-linecap="round"/>
    <path d="M5 16L8 17" stroke="#5A6B7D" stroke-width="1.5" stroke-linecap="round"/>
    <path d="M22 13L25 14" stroke="#5A6B7D" stroke-width="1.5" stroke-linecap="round"/>
    <path d="M22 17L25 16" stroke="#5A6B7D" stroke-width="1.5" stroke-linecap="round"/>
    
    <!-- Cat legs -->
    <rect x="8" y="48" width="3" height="8" rx="1.5" fill="#ffffff" stroke="#5A6B7D" stroke-width="2"/>
    <rect x="13" y="48" width="3" height="8" rx="1.5" fill="#ffffff" stroke="#5A6B7D" stroke-width="2"/>
    <rect x="18" y="48" width="3" height="8" rx="1.5" fill="#ffffff" stroke="#5A6B7D" stroke-width="2"/>
  </g>
  
  <!-- Dog (right side) -->
  <g transform="translate(60, 30)">
    <!-- Dog body -->
    <path d="M5 35C5 31.6863 7.68629 29 11 29H19C22.3137 29 25 31.6863 25 35V42C25 45.3137 22.3137 48 19 48H11C7.68629 48 5 45.3137 5 42V35Z" 
          fill="#ffffff" stroke="#5A6B7D" stroke-width="2.5"/>
    
    <!-- Dog head -->
    <ellipse cx="15" cy="15" rx="11" ry="12" fill="#ffffff" stroke="#5A6B7D" stroke-width="2.5"/>
    
    <!-- Dog ears -->
    <path d="M8 6C8 4 9 2 11 2C13 2 14 4 14 6C14 8 13 12 11 12C9 12 8 8 8 6Z" 
          fill="#ffffff" stroke="#5A6B7D" stroke-width="2.5"/>
    <path d="M16 6C16 4 17 2 19 2C21 2 22 4 22 6C22 8 21 12 19 12C17 12 16 8 16 6Z" 
          fill="#ffffff" stroke="#5A6B7D" stroke-width="2.5"/>
    
    <!-- Dog face -->
    <circle cx="11" cy="13" r="1.5" fill="#5A6B7D"/>
    <circle cx="19" cy="13" r="1.5" fill="#5A6B7D"/>
    <ellipse cx="15" cy="18" rx="2" ry="1.5" fill="#5A6B7D"/>
    <path d="M13 20C13.5 20.5 14.2 21 15 21C15.8 21 16.5 20.5 17 20" 
          fill="none" stroke="#5A6B7D" stroke-width="1.5" stroke-linecap="round"/>
    
    <!-- Dog legs -->
    <rect x="8" y="48" width="3" height="8" rx="1.5" fill="#ffffff" stroke="#5A6B7D" stroke-width="2"/>
    <rect x="13" y="48" width="3" height="8" rx="1.5" fill="#ffffff" stroke="#5A6B7D" stroke-width="2"/>
    <rect x="18" y="48" width="3" height="8" rx="1.5" fill="#ffffff" stroke="#5A6B7D" stroke-width="2"/>
  </g>
</svg> 